<?xml version="1.0" encoding="UTF-8"?>
<svg id="Layer_1" xmlns="http://www.w3.org/2000/svg" xmlns:xlink="http://www.w3.org/1999/xlink" version="1.1" viewBox="0 0 1254 1254">
  <!-- Generator: Adobe Illustrator 30.4.0, SVG Export Plug-In . SVG Version: 2.1.4 Build 226)  -->
  <defs>
    <style>
      .st0 {
        fill: url(#linear-gradient2);
      }

      .st1 {
        fill: url(#linear-gradient1);
      }

      .st2 {
        fill: #03173a;
      }

      .st3 {
        fill: url(#linear-gradient);
      }

      .st4 {
        fill: #d7deec;
      }

      .st5 {
        fill: #fff;
      }

      .st6 {
        fill: #002283;
      }

      .st7 {
        fill: #0040c1;
      }
    </style>
    <linearGradient id="linear-gradient" x1="235.77" y1="442.33" x2="238.9" y2="783.35" gradientUnits="userSpaceOnUse">
      <stop offset="0" stop-color="#0877fb"/>
      <stop offset=".03" stop-color="#0775f6"/>
      <stop offset=".06" stop-color="#076fea"/>
      <stop offset=".09" stop-color="#0765d6"/>
      <stop offset=".1" stop-color="#0763d2"/>
      <stop offset=".14" stop-color="#065fc9"/>
      <stop offset=".17" stop-color="#065cc2"/>
      <stop offset=".28" stop-color="#0554b2"/>
      <stop offset=".39" stop-color="#054b9f"/>
      <stop offset=".41" stop-color="#044696"/>
      <stop offset=".45" stop-color="#043f86"/>
      <stop offset=".51" stop-color="#043b7d"/>
      <stop offset=".58" stop-color="#043a7b"/>
      <stop offset=".64" stop-color="#033570"/>
      <stop offset=".75" stop-color="#022754"/>
      <stop offset=".89" stop-color="#011226"/>
      <stop offset="1" stop-color="#000"/>
    </linearGradient>
    <linearGradient id="linear-gradient1" x1="1023.85" y1="548.68" x2="1026.49" y2="700.42" gradientUnits="userSpaceOnUse">
      <stop offset=".59" stop-color="#0040c1"/>
      <stop offset=".65" stop-color="#003ebc"/>
      <stop offset=".71" stop-color="#003ab0"/>
      <stop offset=".77" stop-color="#00339c"/>
      <stop offset=".83" stop-color="#002a7f"/>
      <stop offset=".89" stop-color="#001d5a"/>
      <stop offset=".95" stop-color="#000f2d"/>
      <stop offset="1" stop-color="#000"/>
    </linearGradient>
    <linearGradient id="linear-gradient2" x1="1158.87" y1="553.4" x2="1091.17" y2="725.6" gradientUnits="userSpaceOnUse">
      <stop offset=".25" stop-color="#0040c1"/>
      <stop offset=".35" stop-color="#003ebc"/>
      <stop offset=".46" stop-color="#003ab0"/>
      <stop offset=".57" stop-color="#00339b"/>
      <stop offset=".68" stop-color="#00297d"/>
      <stop offset=".8" stop-color="#001d58"/>
      <stop offset=".91" stop-color="#000e2a"/>
      <stop offset="1" stop-color="#000"/>
    </linearGradient>
  </defs>
  <g>
    <path class="st4" d="M244.97,788.9s0,0,0,0c16.86-1.7,82.65,1.97,80.92,10.66-.7,3.52-14.77,6.52-23.52,7.56-36.01,4.25-72,4.22-108.06.44-9.5-.99-26.34-4.06-27.58-8.12.24-9.16,62.56-11.26,72.17-10.82"/>
    <path class="st3" d="M246.94,795.58l-2.68-3.38-.65-.86-63.52-83.51-44.2-55.97c-17.72-22.44-27.76-49.97-29.37-78.77-2.99-53.58,26.76-104.01,74.95-127.13,29.82-14.3,63.76-16.47,94.9-5.29,44.96,16.14,77.17,56.16,84.71,103.08,0,.03-.02.06-.05.06l-26.16.06s-.04-.02-.05-.04c-5.16-26.49-20.07-49.24-41.91-64.95-28.86-20.75-65.66-24.48-98.02-9.95-34.82,15.64-58.18,49.47-61.31,86.3-3.37,39.58,15.38,77.54,48.93,98.76.03-.01.05-.02.08-.03,1.76-4.75.75-8.02.71-12.24,0-.01-.01-.03-.02-.04-8.89-6.5-16.2-14.13-22.88-22.74,0,0-.01-.02-.01-.03v-64.01s-.03-.05-.06-.05l-12.67-.6s-.07-.06-.03-.09l87.23-78.36s.05-.02.07,0l76.14,67.49s.01.09-.03.09l-25.62.11s-.05.02-.05.05l-.13,31.3s0,0,0,.01c-.37,1.68-2.19,3.36-4.22,3.36l-90.12.03s-.05.02-.05.05l.59,108.48c.14,26.75,21.56,45.99,47.46,47.4l53.61.46c2.94.03,5.44.2,8.48.15l40.56-.6c10.85-.16,18.99-9.29,18.98-20.19l-.06-107.93c0-6.41-5.88-11.21-11.66-11.28l-16.13-.19c-2.4-.03-6.06-1.16-6.11-4.01l-.4-24.45c-.08-4.79-3.75-7.75-8.35-7.75h-23.52s-.05-.02-.05-.05l-.02-7.04s.02-.05.05-.05l30.13.88s0,0,0,0c21.13,4.23,43.4,36.2,43.43,50.28l.23,114.46c.03,14.13-12.74,24.42-25.65,25.31,0,0,0,0,0,0l-48.05.18s-.02,0-.03,0c-1.38-.92-6.15-2.11-7.5-.29l-36.93,49.66-.82,1.11"/>
    <path class="st5" d="M231.97,556.43l-.12-15.46h0s-15.28.02-15.28.02c0,0,.06,9.75.19,15.38"/>
    <g>
      <path class="st6" d="M325.53,614.26l-65.38.09c-2.29,0-4.02-1.43-4.43-3.05-.34-1.36,1.06-4.37,3.13-4.37l66.57-.1c1.44,0,2.04,2.08,2.13,2.99.13,1.22.07,3.17-2.02,4.44Z"/>
      <path class="st6" d="M325.02,655.38l-64.9.12c-2.43,0-4.17-1.28-4.41-3.24-.26-2.11,1.59-4.35,4.37-4.34l64.79.2c2.02,0,2.66,2.36,2.72,3.42s-.36,3.83-2.56,3.84Z"/>
      <rect class="st6" x="287.84" y="656.73" width="7.38" height="72.07" transform="translate(-401.3 984.15) rotate(-89.99)"/>
      <path class="st6" d="M208.92,694.59c-1.89-1.82-.25-4.71,1.42-5.57,3.88-2.01,5.46,3.42,10.41,6.35l14.52-15.11c1.52-1.58,3.77-1.29,5.15-.16,1.17.96,2.28,3.5.75,5.07l-20.39,20.87-11.86-11.45Z"/>
      <path class="st6" d="M218.37,622.08l-9.23-9.23c-1.87-1.87-.83-4.68,1.25-5.81,4.12-2.25,5.72,4.03,10.57,5.69l15.17-15.61c2.04-1.3,4.22-.03,5.05,1.23,1.47,2.24.5,4-1.15,5.69l-17.26,17.77c-1,1.03-3.02,1.66-4.41.28Z"/>
      <path class="st6" d="M218.4,663.07l-9.3-9.16c-1.7-1.68-1.09-4.22.66-5.51,4.08-2.99,5.75,2.65,10.95,5.93l14.01-14.61c1.57-1.64,3.33-2.01,5.16-1.06,1.58.82,3.02,3.7,1.29,5.49l-18.24,18.77c-1,1.03-3.22,1.45-4.53.16Z"/>
    </g>
    <path class="st6" d="M355.33,548.63l.22,18.68c-4.75-7.63-9.86-12.67-16.65-18.32l16.43-.37Z"/>
    <path class="st5" d="M253.36,556.57l-.12-15.46h0s-15.28.02-15.28.02c0,0,.06,9.75.19,15.38"/>
    <path class="st5" d="M231.78,535.1l-.12-15.46h0s-15.28.02-15.28.02c0,0,.06,9.75.19,15.38"/>
    <path class="st5" d="M253.07,535.22l-.12-15.46h0s-15.28.02-15.28.02c0,0,.06,9.75.19,15.38"/>
  </g>
  <g>
    <path class="st2" d="M520.73,673.1l-12.25-30.87-59.28.23-12.3,30.32-19.76-.13,52.31-128.01,19.29-.04,52.04,128.15-20.05.35ZM501.82,625.67l-22.94-56.37-23,56.7,45.95-.33Z"/>
    <path class="st2" d="M709.45,624.69l-36.09.68-.18,47.36-18.69.13-.03-128.27,55.78.58c20.97,1.62,35.58,18.28,35.07,38.76,1.43,21.75-13.71,38.66-35.87,40.76ZM726.51,583.46c-.2-13.52-9.88-22.57-22.73-22.61l-30.6-.09.05,48.33,31.37-.2c13.78-.09,23.17-11.12,21.91-25.43Z"/>
    <path class="st2" d="M583.35,674.46c-17.3-1.18-30.45-12.87-35.48-29.17-3.76-12.18-3.13-25.61.75-37.64,5.74-13.76,16.74-23.97,31.26-26.05,13.84-1.98,26.21,1.76,35.45,13.31l.44-50.3,16.83.03.05,128.8-16.16-.81c-.19-4.13.62-7.48-.91-12.55-7.85,10.59-18.53,15.33-32.23,14.39ZM611.76,647.1c6.63-12.05,6.53-27.12.06-38.72-5.01-8.96-14.37-12.78-24.2-12.02-8.65.67-17,5.54-20.96,14.56-4.98,11.33-4.82,25.07,1.21,35.93,4.59,8.26,12.97,12.26,21.66,12.28s17.45-3.33,22.23-12.02Z"/>
    <path class="st2" d="M924.36,706.29l-16.89.02v-123.5s16.94-.16,16.94-.16c-.08,4.05-.86,7.21.76,12.38,5.9-7.31,12.78-12.14,21.78-13.5,19.1-2.88,36.73,6.43,44.17,24.41,5.93,14.33,5.53,30.45-.41,44.77-6.53,13.98-19.35,23.04-34.58,23.8-12.65.63-23.43-3.78-31.39-14.46l-.37,46.24ZM970.93,649.5c9.47-13.07,9.1-30.88.03-43.53-9.25-12.92-30.01-13.34-39.69-.57-9.6,12.66-9.83,31.77-.22,44.57,9.48,12.63,30.46,12.54,39.88-.46Z"/>
    <path class="st2" d="M895.7,635.48c-3.26,24.94-23.67,40.35-47.72,39.07-25.51-1.36-42.44-21.33-42.58-46.53-.15-27.26,19.91-48.45,47.74-46.97,29.23,1.55,46.39,25.06,42.55,54.44ZM872.81,648.1c7.92-12.03,7.79-28.24.44-40.15-5.03-8.14-13.95-11.82-22.71-11.69s-17.42,3.91-22.31,12.14c-7.12,12-7.04,27.85.55,39.68,4.88,7.61,13.52,10.87,21.77,11.05s17-3.05,22.26-11.04Z"/>
    <rect class="st1" x="1015.13" y="544.6" width="19.54" height="128.27"/>
    <path class="st2" d="M772.67,672.63l-16.96.1v-90.07s16.74-.05,16.74-.05c.12,4.97-.8,9.31.7,15.3,6.29-11.28,17.12-18.32,29.67-15.99l.04,17.7c-7.67-1.06-14.78-.49-21.01,4.39-4.92,3.86-8.76,10.75-8.81,18.41l-.37,50.22Z"/>
    <g>
      <path class="st0" d="M1116.68,580.22c-1.71-4.25-2.02-7.67-4.47-10.8l-6,14.18-36.3,89.18-19.96-.25,52.61-127.89,19.39-.13,52.2,127.9-20.34.3-37.14-92.49Z"/>
      <path class="st7" d="M1113.74,656.52l-.32,2.39c-.07.51-.94.85-1.37.55-2.29-1.56.76-20.91-23.67-22.83,6.49-2.64,12.51-2.62,17.02-7.3,4.58-4.75,4.48-11.06,7.04-17.81,2.14,6.84,2.21,13.4,6.93,18.04,4.41,4.33,10.13,4.45,16.22,7.04-12.24,1.19-20.22,7.7-21.86,19.92Z"/>
    </g>
  </g>
</svg>